<?xml version="1.0" encoding="UTF-8" standalone="no"?>
<!-- Uploaded to: SVG Repo, www.svgrepo.com, Transformed by: SVG Repo Mixer Tools -->

<svg
   width="800px"
   height="800px"
   viewBox="0 0 64 64"
   fill="#000000"
   version="1.1"
   id="svg135"
   xmlns="http://www.w3.org/2000/svg"
   xmlns:svg="http://www.w3.org/2000/svg">
  <defs
     id="defs139" />
  <g
     id="SVGRepo_bgCarrier"
     stroke-width="0"
     transform="matrix(-1,0,0,1,64,0)" />
  <g
     id="SVGRepo_tracerCarrier"
     stroke-linecap="round"
     stroke-linejoin="round"
     transform="matrix(-1,0,0,1,64,0)" />
  <g
     id="SVGRepo_iconCarrier"
     transform="matrix(-1,0,0,1,64,0)">
    <title
       id="title93">dragon</title>
    <g
       id="dragon">
      <circle
         cx="58"
         cy="16"
         r="1"
         id="circle95" />
      <circle
         cx="36"
         cy="5"
         r="1"
         id="circle97" />
      <line
         x1="15.919"
         y1="10.586"
         x2="12.223"
         y2="14.281"
         style="fill:none;stroke:#000000;stroke-width:2px;stroke-linecap:round;stroke-linejoin:round"
         id="line99" />
      <line
         x1="12.223"
         y1="10.586"
         x2="15.919"
         y2="14.281"
         style="fill:none;stroke:#000000;stroke-width:2px;stroke-linecap:round;stroke-linejoin:round"
         id="line101" />
      <path
         d="m 20,44 v -3.891 a 7.423,7.423 0 0 1 5.5,4.56"
         style="fill:none;stroke:#000000;stroke-width:2px;stroke-linecap:round;stroke-linejoin:round"
         id="path103" />
      <line
         x1="52.023998"
         y1="29"
         x2="63"
         y2="29"
         style="fill:none;stroke:#000000;stroke-width:2px;stroke-linecap:round;stroke-linejoin:round"
         id="line105" />
      <line
         x1="63"
         y1="51"
         x2="51.264999"
         y2="51"
         style="fill:none;stroke:#000000;stroke-width:2px;stroke-linecap:round;stroke-linejoin:round"
         id="line107" />
      <path
         d="M 2.261,34.248 A 7.487,7.487 0 0 0 7.491,40 L 7.345,36.664"
         style="fill:none;stroke:#000000;stroke-width:2px;stroke-linecap:round;stroke-linejoin:round"
         id="path109" />
      <path
         d="m 6.417,34.678 a 7.581,7.581 0 0 0 5.074,5.074 l -0.228,-5.223"
         style="fill:none;stroke:#000000;stroke-width:2px;stroke-linecap:round;stroke-linejoin:round"
         id="path111" />
      <path
         d="m 15,44.719 v -4.61 A 7.453,7.453 0 0 1 20.632,45"
         style="fill:none;stroke:#000000;stroke-width:2px;stroke-linecap:round;stroke-linejoin:round"
         id="path113" />
      <path
         d="m 2,31.515 v 2.594 h 24.545 a 5.446,5.446 0 0 1 0,10.891 H 2 a 9.27,9.27 0 0 0 3.844,8.98 6.624,6.624 0 0 1 1.046,-3.137 c 0.523,9.412 9.935,8.366 9.935,8.366 -3.137,-3.137 -3.137,-8.889 -3.137,-8.889 a 10.811,10.811 0 0 0 10.981,8.889 9.928,9.928 0 0 1 -3.137,-8.889 c 1.046,10.458 9.935,8.889 9.935,8.889 a 10.606,10.606 0 0 1 -2.091,-8.366 11.051,11.051 0 0 0 13.073,6.8 c 9.935,-2.092 10.458,-13.6 10.458,-13.6 -3.137,5.229 -13.6,3.137 -13.6,3.137 14.119,-1.046 13.6,-13.6 13.6,-13.6 a 10.252,10.252 0 0 1 -3.771,2.62"
         style="fill:none;stroke:#000000;stroke-width:2px;stroke-linecap:round;stroke-linejoin:round"
         id="path115" />
      <path
         d="m 35.651,21.82 a 7.583,7.583 0 0 0 -15.165,0 c 0,0.061 0.008,0.12 0.009,0.18 h -9"
         style="fill:none;stroke:#000000;stroke-width:2px;stroke-linecap:round;stroke-linejoin:round"
         id="path117" />
      <path
         d="m 52.024,29 a 12.724,12.724 0 0 0 0.883,-6.4 L 48.2,26 42.632,23.817"
         style="fill:none;stroke:#000000;stroke-width:2px;stroke-linecap:round;stroke-linejoin:round"
         id="path119" />
      <path
         d="m 10.119,25.742 c 0,0 3.138,0.683 3.138,6.831 0,6.148 10.981,4.1 10.981,4.1"
         style="fill:none;stroke:#000000;stroke-width:2px;stroke-linecap:round;stroke-linejoin:round"
         id="path121" />
      <path
         d="m 10.5,24.732 c 0.754,0.073 2.621,0.667 5.5,4.268 4,5 12,1 12,1"
         style="fill:none;stroke:#000000;stroke-width:2px;stroke-linecap:round;stroke-linejoin:round"
         id="path123" />
      <path
         d="M 40.161,25.742 51,15.284 V 8.5 A 2.5,2.5 0 0 0 48.5,6 V 6 A 2.5,2.5 0 0 0 46,8.5 v 4.692 l -4,4.183 V 13 a 3,3 0 0 0 -3,-3 v 0 a 3,3 0 0 0 -3,3 v 8.559 l -1.261,0.908"
         style="fill:none;stroke:#000000;stroke-width:2px;stroke-linecap:round;stroke-linejoin:round"
         id="path125" />
      <path
         d="M 2.759,21 H 11 v 0 A 10,10 0 0 1 1,31 v 0 -8.241 A 1.759,1.759 0 0 1 2.759,21 Z"
         style="fill:none;stroke:#000000;stroke-width:2px;stroke-linecap:round;stroke-linejoin:round"
         id="path127" />
      <path
         d="m 23.973,24.3 6.119,-0.507 a 0.53,0.53 0 0 0 0.4,-0.824 l -1.409,-2.1 a 0.529,0.529 0 0 0 -0.767,-0.12 L 23.934,24.2 a 0.056,0.056 0 0 0 0.039,0.1 z"
         style="fill:none;stroke:#000000;stroke-width:2px;stroke-linecap:round;stroke-linejoin:round"
         id="path129" />
      <line
         x1="2"
         y1="24"
         x2="3"
         y2="24"
         style="fill:none;stroke:#000000;stroke-width:2px;stroke-linecap:round;stroke-linejoin:round"
         id="line131" />
    </g>
  </g>
</svg>
